<?xml version="1.0" standalone="no"?>
<!DOCTYPE svg PUBLIC "-//W3C//DTD SVG 20010904//EN"
 "http://www.w3.org/TR/2001/REC-SVG-20010904/DTD/svg10.dtd">
<svg version="1.0" xmlns="http://www.w3.org/2000/svg"
 width="260.000000pt" height="50.000000pt" viewBox="0 0 260.000000 50.000000"
 preserveAspectRatio="xMidYMid meet">
<metadata>
Created by potrace 1.14, written by Peter Selinger 2001-2017
</metadata>
<g transform="translate(0.000000,50.000000) scale(0.100000,-0.100000)"
fill="#000000" stroke="none">
<path d="M1795 418 c-2 -7 -13 -60 -25 -118 -11 -58 -23 -113 -26 -122 -3 -9
4 -26 15 -37 19 -19 33 -21 132 -21 61 0 119 5 130 11 15 7 24 7 34 -1 9 -8
43 -10 102 -6 105 6 93 6 218 0 59 -3 112 -1 128 5 35 14 54 57 63 144 7 66 6
67 -20 77 -42 16 -260 13 -301 -4 -34 -14 -41 -30 -60 -118 -5 -26 -8 -28 -60
-28 -62 0 -59 -8 -34 90 15 58 14 60 -46 60 l-54 0 -10 -37 c-5 -21 -14 -54
-18 -73 -8 -32 -12 -35 -51 -38 -40 -3 -42 -2 -42 23 0 15 6 53 14 84 8 31 16
71 20 89 l6 32 -56 0 c-35 0 -56 -5 -59 -12z"/>
<path d="M76 352 c-7 -12 -36 -159 -36 -186 0 -14 5 -28 12 -32 13 -8 306 -7
319 1 4 3 13 37 19 75 l12 70 44 0 c35 0 44 -3 44 -17 0 -18 -16 -91 -26 -126
-5 -17 4 -18 153 -13 182 5 174 5 256 3 34 -1 89 -1 122 0 33 1 97 -1 142 -4
52 -3 89 0 103 7 16 9 25 9 33 1 14 -14 142 -14 168 0 15 7 24 7 34 -1 10 -8
43 -11 94 -9 101 5 114 16 136 117 8 42 18 87 21 100 4 22 3 23 -52 20 l-57
-3 -14 -70 c-15 -72 -31 -95 -68 -95 -37 0 -43 16 -29 78 22 92 22 92 -40 92
-53 0 -55 -1 -61 -32 -24 -124 -25 -127 -62 -134 -49 -9 -58 4 -44 68 25 110
29 99 -35 96 l-57 -3 -14 -70 c-14 -72 -31 -95 -67 -95 -43 0 -49 13 -36 76 6
33 14 67 16 77 5 15 -2 17 -50 17 l-55 0 -11 -37 c-5 -21 -13 -55 -16 -76 -8
-46 -29 -59 -92 -55 -47 3 -47 3 -46 38 0 19 4 54 9 78 l8 42 -55 0 -54 0 -18
-74 -17 -75 -45 -7 c-65 -9 -73 -4 -63 48 5 24 11 60 15 81 l7 39 -141 -4
c-166 -4 -173 -7 -195 -103 l-13 -60 -52 -3 c-41 -2 -54 0 -59 13 -5 15 10
106 24 143 4 9 -10 12 -50 12 -31 0 -58 -3 -61 -8z"/>
</g>
</svg>
